<?xml version="1.0" encoding="UTF-8"?>
<svg width="129px" height="69px" viewBox="0 0 129 69" version="1.1" xmlns="http://www.w3.org/2000/svg" xmlns:xlink="http://www.w3.org/1999/xlink">
    <!-- Generator: Sketch 42 (36781) - http://www.bohemiancoding.com/sketch -->
    <title>Logo</title>
    <desc>Created with Sketch.</desc>
    <defs>
        <polygon id="path-1" points="0 68.8646435 128.689658 68.8646435 128.689658 0.895536364 0 0.895536364"></polygon>
    </defs>
    <g id="Symbols" stroke="none" stroke-width="1" fill="none" fill-rule="evenodd">
        <g id="Logo">
            <g id="Page-1">
                <path d="M5.11604018,51.5846987 L5.11604018,54.2251435 L3.00059375,54.2251435 L3.00059375,63.1949942 L0.000142742674,63.1949942 L0.000142742674,51.7194877 C0.000142742674,48.6235981 1.86578949,46.3208351 5.23023432,46.7039195 L5.23023432,49.506111 C3.7985253,49.3926045 3.02486,49.9785818 3.00059375,51.5846987 L5.11604018,51.5846987 Z" id="Fill-1" fill="#3DC1D0"></path>
                <path d="M12.9794486,63.4445666 C9.70493166,63.4445666 7.77362328,61.2964562 7.77362328,58.2488068 L7.77362328,51.5405731 L10.7740743,51.5405731 L10.7740743,58.339612 C10.7740743,58.9936932 11.0024626,60.5529886 12.9794486,60.5529886 C14.2969635,60.5529886 15.251912,59.6250731 15.251912,58.339612 L15.251912,51.5405731 L18.2509356,51.5405731 L18.2509356,58.2488068 C18.2509356,61.2070698 16.1597554,63.4445666 12.9794486,63.4445666" id="Fill-3" fill="#3DC1D0"></path>
                <path d="M26.2041291,63.1515779 C22.7711678,63.5133799 20.9540536,61.4560747 20.9540536,58.2707987 L20.9540536,48.5801818 L23.9530772,48.5801818 L23.9530772,51.5412825 L26.0685236,51.5412825 L26.0685236,54.1817273 L23.9530772,54.1817273 L23.9530772,58.2949188 C23.9530772,59.9180617 24.7024762,60.5309968 26.2041291,60.4387727 L26.2041291,63.1515779 Z" id="Fill-5" fill="#3DC1D0"></path>
                <path d="M34.1350548,63.4445666 C30.8605379,63.4445666 28.9292295,61.2964562 28.9292295,58.2488068 L28.9292295,51.5405731 L31.9296805,51.5405731 L31.9296805,58.339612 C31.9296805,58.9936932 32.1580688,60.5529886 34.1350548,60.5529886 C35.4525697,60.5529886 36.4060908,59.6250731 36.4060908,58.339612 L36.4060908,51.5405731 L39.4065418,51.5405731 L39.4065418,58.2488068 C39.4065418,61.2070698 37.3153616,63.4445666 34.1350548,63.4445666" id="Fill-7" fill="#3DC1D0"></path>
                <path d="M48.7013737,54.1141909 C46.7900493,53.7765091 45.5182121,54.793811 45.5182121,56.441074 L45.5182121,63.1734279 L42.5177611,63.1734279 L42.5177611,56.441074 C42.5177611,53.1422916 44.8130633,50.8395286 48.7013737,51.3119994 L48.7013737,54.1141909 Z" id="Fill-9" fill="#3DC1D0"></path>
                <path d="M58.1539364,54.9046218 C57.6086593,54.2491218 56.7907438,53.8674562 55.8343679,53.8674562 C54.1100364,53.8674562 52.7225776,55.2210211 52.6540611,57.2102224 L58.1539364,54.9046218 Z M61.5183812,59.4690016 C60.8346438,61.8398685 58.7677299,63.4431477 55.8586342,63.4431477 C52.5384396,63.4431477 49.8577321,60.7331802 49.8577321,57.3691315 C49.8577321,54.0008263 52.5384396,51.2440373 55.8586342,51.2440373 C58.677802,51.2440373 61.0401932,53.0090633 61.6083091,56.1248166 L53.3363711,59.5796705 C53.9258984,60.3713782 54.8137578,60.8239854 55.8343679,60.8239854 C56.8150101,60.8239854 57.8142088,60.3926607 58.3138082,59.4690016 L61.5183812,59.4690016 Z" id="Fill-11" fill="#3DC1D0"></path>
                <path d="M66.40275,52.3752714 L66.40275,63.1725766 L65.5391568,63.1725766 L65.5391568,50.7280084 C65.5391568,48.1485734 67.0165435,46.5013104 69.5388065,46.7283234 L69.5388065,47.4973299 C67.3562711,47.3597032 66.40275,48.714687 66.40275,50.7932747 L66.40275,51.5409987 L69.5388065,51.5409987 L69.5388065,52.3752714 L66.40275,52.3752714 Z" id="Fill-13" fill="#3DC1D0"></path>
                <path d="M77.0387921,52.1029977 C74.2881408,52.1029977 72.0370888,54.4752834 72.0370888,57.3909815 C72.0370888,60.2598581 74.2881408,62.6066049 77.0387921,62.6066049 C79.7894435,62.6066049 82.039068,60.2598581 82.039068,57.3909815 C82.039068,54.4752834 79.7894435,52.1029977 77.0387921,52.1029977 L77.0387921,52.1029977 Z M82.8798223,63.1727185 L82.039068,63.1727185 L82.039068,60.3733646 C81.0826921,62.2008192 79.2199002,63.4451341 77.0387921,63.4451341 C73.8099528,63.4451341 71.1977619,60.7323289 71.1977619,57.3909815 C71.1977619,54.0028127 73.8099528,51.2446049 77.0387921,51.2446049 C80.2647766,51.2446049 82.8798223,54.0028127 82.8798223,57.3909815 L82.8798223,63.1727185 Z" id="Fill-15" fill="#3DC1D0"></path>
                <path d="M103.195959,63.1730023 L102.356632,63.1730023 L102.356632,55.6716419 C102.356632,53.5930542 100.830713,52.1032815 98.7423875,52.1032815 C96.6754736,52.1032815 95.1495544,53.5930542 95.1495544,55.6716419 L95.1495544,63.1730023 L94.3102274,63.1730023 L94.3102274,55.6716419 C94.3102274,53.5930542 92.7871631,52.1032815 90.6959829,52.1032815 C88.629069,52.1032815 87.1031498,53.5930542 87.1031498,55.6716419 L87.1031498,63.1730023 L86.2395567,63.1730023 L86.2395567,55.6716419 C86.2395567,53.1205834 88.1266148,51.2448886 90.6959829,51.2448886 C92.6044525,51.2448886 94.0818392,52.2621906 94.7198989,53.8200672 C95.3779427,52.2621906 96.8553293,51.2448886 98.7423875,51.2448886 C101.333167,51.2448886 103.195959,53.1205834 103.195959,55.6716419 L103.195959,63.1730023 Z" id="Fill-17" fill="#3DC1D0"></path>
                <mask id="mask-2" fill="white">
                    <use xlink:href="#path-1"></use>
                </mask>
                <g id="Clip-20"></g>
                <path d="M106.715851,63.1751305 L107.555177,63.1751305 L107.555177,51.5407149 L106.715851,51.5407149 L106.715851,63.1751305 Z M106.715851,49.5756338 L107.555177,49.5756338 L107.555177,47.4970461 L106.715851,47.4970461 L106.715851,49.5756338 Z" id="Fill-19" fill="#3DC1D0" mask="url(#mask-2)"></path>
                <path d="M116.260197,62.4047052 L116.260197,63.1737117 C113.737934,63.4007247 112.281958,61.7492052 112.281958,59.154163 L112.281958,46.3648188 L113.12414,46.3648188 L113.12414,59.154163 C113.12414,61.1391078 114.033411,62.4940916 116.260197,62.4047052" id="Fill-21" fill="#3DC1D0" mask="url(#mask-2)"></path>
                <path d="M128.689515,63.9864182 C128.689515,66.8552948 126.691118,68.8643597 123.806288,68.8643597 C121.351114,68.8643597 119.485467,67.3064831 119.032973,65.0235838 L119.917978,65.0235838 C120.327649,66.8098922 121.849286,68.030087 123.806288,68.030087 C126.21293,68.030087 127.828777,66.4026877 127.828777,63.9864182 L127.828777,61.2523305 C127.030845,62.6073143 125.601991,63.4444247 123.757756,63.4444247 C120.917176,63.4444247 118.850262,61.3871195 118.850262,58.5636455 L118.850262,51.5390123 L119.689589,51.5390123 L119.689589,58.5636455 C119.689589,60.9146487 121.416776,62.6073143 123.757756,62.6073143 C126.120147,62.6073143 127.828777,60.9146487 127.828777,58.5636455 L127.828777,51.5390123 L128.689515,51.5390123 L128.689515,63.9864182 Z" id="Fill-22" fill="#3DC1D0" mask="url(#mask-2)"></path>
                <path d="M64.8213039,10.0216003 L64.8213039,14.923662 L60.9001627,14.923662 L60.9001627,31.5566198 L55.3403355,31.5566198 L55.3403355,10.2727334 C55.3403355,4.53356136 58.7947082,0.260041883 65.0325631,0.973713961 L65.0325631,6.16663604 C62.3775493,5.95948669 60.9429855,7.04914903 60.9001627,10.0216003 L64.8213039,10.0216003 Z" id="Fill-23" fill="#3DC1D0" mask="url(#mask-2)"></path>
                <path d="M75.7750912,10.0216003 L75.7750912,14.923662 L71.85395,14.923662 L71.85395,31.5566198 L66.291268,31.5566198 L66.291268,10.2727334 C66.291268,4.53356136 69.7484955,0.260041883 75.9863504,0.973713961 L75.9863504,6.16663604 C73.3313367,5.95948669 71.8967728,7.04914903 71.85395,10.0216003 L75.7750912,10.0216003 Z" id="Fill-24" fill="#3DC1D0" mask="url(#mask-2)"></path>
            </g>
        </g>
    </g>
</svg>